<?xml version="1.0" encoding="UTF-8"?>
<svg version="1.1" xmlns="http://www.w3.org/2000/svg" width="128" height="128">
<path d="M0 0 C0.86915039 -0.00860046 1.73830078 -0.01720093 2.63378906 -0.02606201 C3.58964905 -0.03032196 4.54550903 -0.03458191 5.53033447 -0.03897095 C6.53536011 -0.04714844 7.54038574 -0.05532593 8.5758667 -0.06375122 C11.9125712 -0.08862924 15.24923308 -0.10512764 18.58599854 -0.11953735 C20.29309368 -0.12752287 20.29309368 -0.12752287 22.0346756 -0.13566971 C28.05861234 -0.16241205 34.08252827 -0.1817833 40.10650635 -0.19619751 C46.33215107 -0.21284579 52.55726647 -0.25762263 58.78271103 -0.30856895 C63.56624975 -0.34220858 68.34966236 -0.35377142 73.13330841 -0.35942459 C75.42824599 -0.36614635 77.72317501 -0.38139224 80.01799774 -0.4053154 C83.23088319 -0.43689738 86.44233486 -0.43701361 89.65533447 -0.42959595 C91.07697906 -0.45420395 91.07697906 -0.45420395 92.52734375 -0.47930908 C96.93792631 -0.43763699 99.91852772 -0.26468671 103.4263916 2.56536865 C106.41214679 5.75216544 106.97450698 7.08699661 107.00552368 11.30227661 C107.01412415 12.171427 107.02272461 13.04057739 107.03158569 13.93606567 C107.03584564 14.89192566 107.04010559 15.84778564 107.04449463 16.83261108 C107.05676086 18.34014954 107.05676086 18.34014954 107.0692749 19.87814331 C107.09415292 23.21484781 107.11065133 26.55150969 107.12506104 29.88827515 C107.13038471 31.02633858 107.13570839 32.16440201 107.14119339 33.33695221 C107.16793573 39.36088895 107.18730698 45.38480488 107.20172119 51.40878296 C107.21836947 57.63442768 107.26314631 63.85954308 107.31409264 70.08498764 C107.34773226 74.86852636 107.3592951 79.65193897 107.36494827 84.43558502 C107.37167003 86.7305226 107.38691592 89.02545162 107.41083908 91.32027435 C107.44242106 94.5331598 107.44253729 97.74461147 107.43511963 100.95761108 C107.45152496 101.90537415 107.4679303 102.85313721 107.48483276 103.82962036 C107.44316067 108.24020292 107.2702104 111.22080434 104.44015503 114.72866821 C101.25335824 117.7144234 99.91852707 118.27678359 95.70324707 118.30780029 C94.39952148 118.32070099 94.39952148 118.32070099 93.06945801 118.3338623 C92.11359802 118.33812225 91.15773804 118.3423822 90.1729126 118.34677124 C89.16788696 118.35494873 88.16286133 118.36312622 87.12738037 118.37155151 C83.79067587 118.39642953 80.45401399 118.41292794 77.11724854 118.42733765 C75.9791851 118.43266132 74.84112167 118.437985 73.66857147 118.44347 C67.64463473 118.47021234 61.6207188 118.48958359 55.59674072 118.5039978 C49.371096 118.52064608 43.1459806 118.56542292 36.92053604 118.61636925 C32.13699732 118.65000888 27.35358471 118.66157171 22.56993866 118.66722488 C20.27500108 118.67394665 17.98007206 118.68919253 15.68524933 118.71311569 C12.47236388 118.74469767 9.26091221 118.7448139 6.0479126 118.73739624 C5.10014954 118.75380157 4.15238647 118.77020691 3.17590332 118.78710938 C-1.23467924 118.74543728 -4.21528065 118.57248701 -7.72314453 115.74243164 C-10.70889972 112.55563485 -11.27125991 111.22080368 -11.30227661 107.00552368 C-11.31087708 106.13637329 -11.31947754 105.2672229 -11.32833862 104.37173462 C-11.33259857 103.41587463 -11.33685852 102.46001465 -11.34124756 101.47518921 C-11.34942505 100.47016357 -11.35760254 99.46513794 -11.36602783 98.42965698 C-11.39090585 95.09295249 -11.40740426 91.75629061 -11.42181396 88.41952515 C-11.42713764 87.28146172 -11.43246132 86.14339828 -11.43794632 84.97084808 C-11.46468866 78.94691134 -11.48405991 72.92299541 -11.49847412 66.89901733 C-11.5151224 60.67337261 -11.55989924 54.44825721 -11.61084557 48.22281265 C-11.64448519 43.43927393 -11.65604803 38.65586132 -11.6617012 33.87221527 C-11.66842296 31.57727769 -11.68366885 29.28234867 -11.70759201 26.98752594 C-11.73917399 23.77464049 -11.73929022 20.56318882 -11.73187256 17.35018921 C-11.74827789 16.40242615 -11.76468323 15.45466309 -11.78158569 14.47817993 C-11.7399136 10.06759737 -11.56696332 7.08699596 -8.73690796 3.57913208 C-5.55011117 0.59337689 -4.21528 0.03101671 0 0 Z M7.85162354 20.15390015 C5.52335978 23.36912152 5.45451172 26.26220439 5.85162354 30.15390015 C7.128512 32.96305476 8.16262171 34.65496779 10.66412354 36.46640015 C14.71223974 37.73866524 17.73149462 37.66304965 21.60162354 35.90390015 C24.02042728 34.02260834 24.93954259 33.05597588 25.85162354 30.15390015 C26.3443889 25.52190567 25.72188195 22.8442324 22.85162354 19.15390015 C17.86737522 15.54461689 12.50175622 16.53713028 7.85162354 20.15390015 Z M5.85162354 44.15390015 C5.82849438 51.43811563 5.81070552 58.72232325 5.79981136 66.00656796 C5.79458379 69.38861827 5.78748843 72.77064354 5.77618408 76.15267944 C5.76328087 80.03719792 5.7583943 83.92170611 5.75396729 87.8062439 C5.748806 89.02601425 5.74364471 90.24578461 5.73832703 91.5025177 C5.7382515 92.62360428 5.73817596 93.74469086 5.73809814 94.89974976 C5.73587753 95.89236313 5.73365692 96.8849765 5.73136902 97.90766907 C5.59912412 100.1241654 5.59912412 100.1241654 6.85162354 101.15390015 C8.18205978 101.25227225 9.51755698 101.28468607 10.85162354 101.28671265 C11.65599854 101.28800171 12.46037354 101.28929077 13.28912354 101.2906189 C14.55756104 101.28481812 14.55756104 101.28481812 15.85162354 101.27890015 C16.69724854 101.28276733 17.54287354 101.28663452 18.41412354 101.2906189 C19.21849854 101.28932983 20.02287354 101.28804077 20.85162354 101.28671265 C21.96537354 101.28502075 21.96537354 101.28502075 23.10162354 101.28329468 C24.87988165 101.3433223 24.87988165 101.3433223 25.85162354 100.15390015 C25.9452736 98.40461295 25.96906791 96.65153761 25.96514893 94.89974976 C25.96503563 93.21811989 25.96503563 93.21811989 25.96492004 91.5025177 C25.95975876 90.28274734 25.95459747 89.06297699 25.94927979 87.8062439 C25.94715736 85.94389854 25.94715736 85.94389854 25.94499207 84.04393005 C25.94032944 80.73784524 25.9313385 77.43182868 25.92028809 74.12576294 C25.9100718 70.75428865 25.90549398 67.38280732 25.90045166 64.01132202 C25.88939749 57.3921624 25.8726409 50.77303522 25.85162354 44.15390015 C22.69312669 42.57465172 19.31511074 43.010735 15.85162354 43.02890015 C15.11427979 43.02503296 14.37693604 43.02116577 13.61724854 43.0171814 C9.60440713 42.93972602 9.60440713 42.93972602 5.85162354 44.15390015 Z M33.15930176 44.35762024 C31.39513749 46.78094792 31.48346856 48.34454708 31.49517822 51.32797241 C31.49217712 52.38239029 31.48917603 53.43680817 31.48608398 54.5231781 C31.49843079 55.66073044 31.51077759 56.79828278 31.52349854 57.9703064 C31.5253717 59.13770859 31.52724487 60.30511078 31.5291748 61.50788879 C31.53590069 63.97675429 31.54982571 66.44560904 31.57037354 68.91439819 C31.6015267 72.70461874 31.61134344 76.49442365 31.61724854 80.28475952 C31.62641833 82.67994691 31.63679402 85.07513005 31.64849854 87.4703064 C31.65274841 88.60988297 31.65699829 89.74945953 31.66137695 90.92356873 C31.6709845 91.97483444 31.68059204 93.02610016 31.69049072 94.10922241 C31.69731873 95.03727188 31.70414673 95.96532135 31.71118164 96.92149353 C31.70829994 99.19239742 31.70829994 99.19239742 32.85162354 101.15390015 C35.99743777 101.18278529 39.14321822 101.20065938 42.28912354 101.21640015 C43.18695557 101.22477905 44.0847876 101.23315796 45.00982666 101.24179077 C46.29083252 101.24662476 46.29083252 101.24662476 47.59771729 101.2515564 C48.38847656 101.25679321 49.17923584 101.26203003 49.99395752 101.26742554 C51.86755042 101.35885924 51.86755042 101.35885924 52.85162354 100.15390015 C52.97468508 97.53627052 53.03771825 94.94093216 53.06256104 92.3218689 C53.09063598 90.70271827 53.11930049 89.08357778 53.14849854 87.46444702 C53.18973688 84.9034968 53.22660979 82.34273448 53.25299072 79.78158569 C53.28061721 77.31544512 53.32649616 74.85017416 53.37506104 72.3843689 C53.3783139 71.62069504 53.38156677 70.85702118 53.38491821 70.07020569 C53.45964097 66.83520985 53.64952893 64.51633427 55.24005127 61.66390991 C56.85162354 60.15390015 56.85162354 60.15390015 59.11334229 59.76327515 C60.314104 59.83288452 60.314104 59.83288452 61.53912354 59.90390015 C62.34736572 59.9399939 63.15560791 59.97608765 63.98834229 60.01327515 C64.9106665 60.08288452 64.9106665 60.08288452 65.85162354 60.15390015 C68.61809113 64.85946767 69.30361908 68.78297151 69.32818604 74.1421814 C69.34376556 74.88598557 69.35934509 75.62978973 69.37539673 76.39613342 C69.42262797 78.75287964 69.45060255 81.10933267 69.47662354 83.46640015 C69.51310963 85.84111674 69.55364608 88.21566675 69.59927368 90.59022522 C69.62651965 92.06360575 69.64786262 93.53710929 69.66281128 95.01066589 C69.42178603 98.36845019 69.42178603 98.36845019 70.85162354 101.15390015 C72.18205978 101.25227225 73.51755698 101.28468607 74.85162354 101.28671265 C75.65599854 101.28800171 76.46037354 101.28929077 77.28912354 101.2906189 C78.55756104 101.28481812 78.55756104 101.28481812 79.85162354 101.27890015 C80.69724854 101.28276733 81.54287354 101.28663452 82.41412354 101.2906189 C83.21849854 101.28932983 84.02287354 101.28804077 84.85162354 101.28671265 C85.96537354 101.28502075 85.96537354 101.28502075 87.10162354 101.28329468 C88.87988165 101.3433223 88.87988165 101.3433223 89.85162354 100.15390015 C89.99011075 97.5318119 90.06482282 94.93805396 90.08990479 92.3140564 C90.09797653 91.51793442 90.10604828 90.72181244 90.11436462 89.90156555 C90.12823134 88.20762319 90.13894186 86.51365257 90.14678955 84.81967163 C90.1638466 82.25799091 90.20768674 79.69765423 90.25201416 77.13632202 C90.34683481 67.34438123 90.36019009 58.64871563 83.85162354 50.71640015 C83.19162354 50.20077515 82.53162354 49.68515015 81.85162354 49.15390015 C81.19162354 48.61765015 80.53162354 48.08140015 79.85162354 47.52890015 C75.05453266 44.23090017 70.67007604 43.05198458 64.85162354 43.15390015 C60.98205515 44.03717119 57.39766997 45.38087693 53.85162354 47.15390015 C53.3476001 46.50292358 52.84357666 45.85194702 52.32427979 45.1812439 C48.92282813 42.39237595 46.63483852 42.65267999 42.28912354 42.71640015 C41.61687744 42.7093103 40.94463135 42.70222046 40.25201416 42.69491577 C36.47486953 42.73609702 36.47486953 42.73609702 33.15930176 44.35762024 Z " fill="#FFFFFF" transform="translate(16.14837646484375,4.846099853515625)"/>
</svg>
