<?xml version="1.0" encoding="UTF-8"?>
<svg version="1.1" xmlns="http://www.w3.org/2000/svg" width="16" height="16">
<path d="M0 0 C0.8146875 0.00257812 1.629375 0.00515625 2.46875 0.0078125 C3.2834375 0.00523438 4.098125 0.00265625 4.9375 0 C6.96875 0.1328125 6.96875 0.1328125 7.96875 1.1328125 C8.06733603 2.5884062 8.09847143 4.04889169 8.09375 5.5078125 C8.09632812 6.29929687 8.09890625 7.09078125 8.1015625 7.90625 C7.96875 10.1328125 7.96875 10.1328125 6.96875 13.1328125 C5.97875 13.1328125 4.98875 13.1328125 3.96875 13.1328125 C3.96875 14.1228125 3.96875 15.1128125 3.96875 16.1328125 C2.97875 16.1328125 1.98875 16.1328125 0.96875 16.1328125 C0.96875 15.1428125 0.96875 14.1528125 0.96875 13.1328125 C0.30875 13.1328125 -0.35125 13.1328125 -1.03125 13.1328125 C-1.03125 12.1428125 -1.03125 11.1528125 -1.03125 10.1328125 C-1.69125 10.1328125 -2.35125 10.1328125 -3.03125 10.1328125 C-3.05814216 8.65374358 -3.07759621 7.17453767 -3.09375 5.6953125 C-3.10535156 4.87160156 -3.11695313 4.04789062 -3.12890625 3.19921875 C-2.99750338 0.41873396 -2.77471038 0.18142337 0 0 Z " fill="#04A951" transform="translate(6.03125,-0.1328125)"/>
<path d="M0 0 C0.66 0 1.32 0 2 0 C2 0.99 2 1.98 2 3 C4.31 3 6.62 3 9 3 C9 2.01 9 1.02 9 0 C9.66 0 10.32 0 11 0 C10.67 2.31 10.34 4.62 10 7 C9.01 7 8.02 7 7 7 C7 7.99 7 8.98 7 10 C6.01 10 5.02 10 4 10 C4 9.01 4 8.02 4 7 C3.34 7 2.68 7 2 7 C2 6.01 2 5.02 2 4 C1.34 4 0.68 4 0 4 C0 2.68 0 1.36 0 0 Z " fill="#037260" transform="translate(3,6)"/>
</svg>
